<svg width="24" height="24" viewBox="0 0 24 24" xmlns="http://www.w3.org/2000/svg">
  <path
    d="M9 4.75h6M10 3h4a1 1 0 0 1 1 1v1h1.75A2.25 2.25 0 0 1 19 7.25v9.5A2.25 2.25 0 0 1 16.75 19h-9.5A2.25 2.25 0 0 1 5 16.75v-9.5A2.25 2.25 0 0 1 7.25 5H9V4a1 1 0 0 1 1-1Z"
    fill="none"
    stroke="#424242"
    stroke-width="1.5"
    stroke-linecap="round"
    stroke-linejoin="round"
  />
  <path
    d="M8.5 10.25h7M8.5 13h4.5M14.75 13a1.75 1.75 0 1 0 0 3.5 1.75 1.75 0 0 0 0-3.5Z"
    fill="none"
    stroke="#424242"
    stroke-width="1.5"
    stroke-linecap="round"
    stroke-linejoin="round"
  />
</svg>
